<svg xmlns="http://www.w3.org/2000/svg" version="1.1" xmlns:xlink="http://www.w3.org/1999/xlink" xmlns:svgjs="http://svgjs.dev/svgjs" width="1920" height="1080" preserveAspectRatio="none" viewBox="0 0 1920 1080"><g mask="url(&quot;#SvgjsMask1188&quot;)" fill="none"><rect width="1920" height="1080" x="0" y="0" fill="rgba(16, 26, 43, 1)"></rect><path d="M1538.36-202.05C1316.65-197.22 1165.43 85.56 706.05 104.71 246.67 123.86 112.79 563.57-126.26 579.91" stroke="rgba(16, 30, 55, 1)" stroke-width="2"></path><path d="M1643.1-160.51C1389.41-140.64 1255.95 343.26 771.69 365.52 287.43 387.78 132.65 684.33-99.72 689.52" stroke="rgba(16, 30, 55, 1)" stroke-width="2"></path><path d="M722.94-186.3C539.57 0.21 672.97 773.17 359.67 794.8 46.38 816.43-164.77 447.83-366.86 438.4" stroke="rgba(16, 30, 55, 1)" stroke-width="2"></path><path d="M1346.09-138.76C1096.03-91.55 1050.22 487.43 588.07 540.63 125.92 593.83 43.94 928.24-169.95 940.23" stroke="rgba(16, 30, 55, 1)" stroke-width="2"></path><path d="M919.35-128.26C822.38-125.68 869.51-6.43 558.7 14.87 247.88 36.17 52.34 469.35-162.61 490.07" stroke="rgba(16, 30, 55, 1)" stroke-width="2"></path></g><defs><mask id="SvgjsMask1188"><rect width="1920" height="1080" fill="#ffffff"></rect></mask></defs></svg>