<svg xmlns="http://www.w3.org/2000/svg" version="1.1" xmlns:xlink="http://www.w3.org/1999/xlink" xmlns:svgjs="http://svgjs.dev/svgjs" width="1920" height="1080" preserveAspectRatio="none" viewBox="0 0 1920 1080"><g mask="url(&quot;#SvgjsMask1025&quot;)" fill="none"><rect width="1920" height="1080" x="0" y="0" fill="rgba(16, 26, 43, 1)"></rect><path d="M969.58 1226.4C1210.06 1069.23 1176.84 249.66 1505.81 210.04 1834.79 170.42 1895.51 442.4 2042.05 447.64" stroke="rgba(28, 47, 81, 1)" stroke-width="2"></path><path d="M479.92 1284.12C654.67 1269.27 771.61 913.65 1074.93 912.51 1378.26 911.37 1372.44 1047.51 1669.95 1047.51 1967.45 1047.51 2112.43 913.35 2264.96 912.51" stroke="rgba(28, 47, 81, 1)" stroke-width="2"></path><path d="M814.29 1265.24C970.73 1183.59 828.52 722.55 1186.01 665.17 1543.51 607.79 1726.83 348.11 1929.46 341.17" stroke="rgba(28, 47, 81, 1)" stroke-width="2"></path><path d="M518.07 1187.54C679.26 1173.14 785.78 840.39 1063.79 839.4 1341.8 838.41 1336.65 974.4 1609.51 974.4 1882.37 974.4 2014.69 840.4 2155.23 839.4" stroke="rgba(28, 47, 81, 1)" stroke-width="2"></path><path d="M829.43 1184.64C1023.87 1049.4 914.33 346.25 1255.48 338.47 1596.62 330.69 1875.74 697.97 2107.57 705.67" stroke="rgba(28, 47, 81, 1)" stroke-width="2"></path></g><defs><mask id="SvgjsMask1025"><rect width="1920" height="1080" fill="#ffffff"></rect></mask></defs></svg>