<svg id="visual" viewBox="0 0 675 900" width="675" height="900" xmlns="http://www.w3.org/2000/svg" xmlns:xlink="http://www.w3.org/1999/xlink" version="1.1"><rect width="675" height="900" fill="#001829"></rect><g><g transform="translate(555 283)"><path d="M0 -13.9L6 -12.5L10.9 -8.7L13.6 -3.1L13.6 3.1L10.9 8.7L6 12.5L0 13.9L-6 12.5L-10.9 8.7L-13.6 3.1L-13.6 -3.1L-10.9 -8.7L-6 -12.5Z" fill="#297EA6"></path></g><g transform="translate(37 7)"><path d="M0 -11L4.8 -9.9L8.6 -6.9L10.7 -2.4L10.7 2.4L8.6 6.9L4.8 9.9L0 11L-4.8 9.9L-8.6 6.9L-10.7 2.4L-10.7 -2.4L-8.6 -6.9L-4.8 -9.9Z" fill="#297EA6"></path></g><g transform="translate(20 872)"><path d="M0 -10L4.3 -9L7.8 -6.2L9.7 -2.2L9.7 2.2L7.8 6.2L4.3 9L0 10L-4.3 9L-7.8 6.2L-9.7 2.2L-9.7 -2.2L-7.8 -6.2L-4.3 -9Z" fill="#297EA6"></path></g><g transform="translate(578 854)"><path d="M0 -12L5.2 -10.8L9.4 -7.5L11.7 -2.7L11.7 2.7L9.4 7.5L5.2 10.8L0 12L-5.2 10.8L-9.4 7.5L-11.7 2.7L-11.7 -2.7L-9.4 -7.5L-5.2 -10.8Z" fill="#297EA6"></path></g><g transform="translate(592 623)"><path d="M0 -11L4.8 -9.9L8.6 -6.9L10.7 -2.4L10.7 2.4L8.6 6.9L4.8 9.9L0 11L-4.8 9.9L-8.6 6.9L-10.7 2.4L-10.7 -2.4L-8.6 -6.9L-4.8 -9.9Z" fill="#297EA6"></path></g><g transform="translate(649 568)"><path d="M0 -11L4.8 -9.9L8.6 -6.9L10.7 -2.4L10.7 2.4L8.6 6.9L4.8 9.9L0 11L-4.8 9.9L-8.6 6.9L-10.7 2.4L-10.7 -2.4L-8.6 -6.9L-4.8 -9.9Z" fill="#297EA6"></path></g></g></svg>