<svg id="visual" viewBox="0 0 1920 1080" width="1920" height="1080" xmlns="http://www.w3.org/2000/svg" xmlns:xlink="http://www.w3.org/1999/xlink" version="1.1"><path d="M0 174L29.2 186.5C58.3 199 116.7 224 174.8 231.2C233 238.3 291 227.7 349.2 231.3C407.3 235 465.7 253 523.8 245.8C582 238.7 640 206.3 698.2 181.2C756.3 156 814.7 138 872.8 143.3C931 148.7 989 177.3 1047.2 197.2C1105.3 217 1163.7 228 1221.8 231.7C1280 235.3 1338 231.7 1396.2 226.2C1454.3 220.7 1512.7 213.3 1570.8 206.2C1629 199 1687 192 1745.2 175.8C1803.3 159.7 1861.7 134.3 1890.8 121.7L1920 109L1920 0L1890.8 0C1861.7 0 1803.3 0 1745.2 0C1687 0 1629 0 1570.8 0C1512.7 0 1454.3 0 1396.2 0C1338 0 1280 0 1221.8 0C1163.7 0 1105.3 0 1047.2 0C989 0 931 0 872.8 0C814.7 0 756.3 0 698.2 0C640 0 582 0 523.8 0C465.7 0 407.3 0 349.2 0C291 0 233 0 174.8 0C116.7 0 58.3 0 29.2 0L0 0Z" fill="#000f19"></path><path d="M0 368L29.2 384.2C58.3 400.3 116.7 432.7 174.8 474.2C233 515.7 291 566.3 349.2 562.8C407.3 559.3 465.7 501.7 523.8 481.8C582 462 640 480 698.2 462C756.3 444 814.7 390 872.8 382.8C931 375.7 989 415.3 1047.2 454.8C1105.3 494.3 1163.7 533.7 1221.8 526.3C1280 519 1338 465 1396.2 438C1454.3 411 1512.7 411 1570.8 412.8C1629 414.7 1687 418.3 1745.2 429.2C1803.3 440 1861.7 458 1890.8 467L1920 476L1920 107L1890.8 119.7C1861.7 132.3 1803.3 157.7 1745.2 173.8C1687 190 1629 197 1570.8 204.2C1512.7 211.3 1454.3 218.7 1396.2 224.2C1338 229.7 1280 233.3 1221.8 229.7C1163.7 226 1105.3 215 1047.2 195.2C989 175.3 931 146.7 872.8 141.3C814.7 136 756.3 154 698.2 179.2C640 204.3 582 236.7 523.8 243.8C465.7 251 407.3 233 349.2 229.3C291 225.7 233 236.3 174.8 229.2C116.7 222 58.3 197 29.2 184.5L0 172Z" fill="#00111c"></path><path d="M0 833L29.2 833C58.3 833 116.7 833 174.8 842C233 851 291 869 349.2 874.3C407.3 879.7 465.7 872.3 523.8 868.7C582 865 640 865 698.2 856C756.3 847 814.7 829 872.8 818.2C931 807.3 989 803.7 1047.2 803.7C1105.3 803.7 1163.7 807.3 1221.8 827.2C1280 847 1338 883 1396.2 879.3C1454.3 875.7 1512.7 832.3 1570.8 810.7C1629 789 1687 789 1745.2 787.3C1803.3 785.7 1861.7 782.3 1890.8 780.7L1920 779L1920 474L1890.8 465C1861.7 456 1803.3 438 1745.2 427.2C1687 416.3 1629 412.7 1570.8 410.8C1512.7 409 1454.3 409 1396.2 436C1338 463 1280 517 1221.8 524.3C1163.7 531.7 1105.3 492.3 1047.2 452.8C989 413.3 931 373.7 872.8 380.8C814.7 388 756.3 442 698.2 460C640 478 582 460 523.8 479.8C465.7 499.7 407.3 557.3 349.2 560.8C291 564.3 233 513.7 174.8 472.2C116.7 430.7 58.3 398.3 29.2 382.2L0 366Z" fill="#001220"></path><path d="M0 1016L29.2 1010.7C58.3 1005.3 116.7 994.7 174.8 994.7C233 994.7 291 1005.3 349.2 998.2C407.3 991 465.7 966 523.8 953.5C582 941 640 941 698.2 946.3C756.3 951.7 814.7 962.3 872.8 965.8C931 969.3 989 965.7 1047.2 967.5C1105.3 969.3 1163.7 976.7 1221.8 982.2C1280 987.7 1338 991.3 1396.2 985.8C1454.3 980.3 1512.7 965.7 1570.8 969.2C1629 972.7 1687 994.3 1745.2 990.8C1803.3 987.3 1861.7 958.7 1890.8 944.3L1920 930L1920 777L1890.8 778.7C1861.7 780.3 1803.3 783.7 1745.2 785.3C1687 787 1629 787 1570.8 808.7C1512.7 830.3 1454.3 873.7 1396.2 877.3C1338 881 1280 845 1221.8 825.2C1163.7 805.3 1105.3 801.7 1047.2 801.7C989 801.7 931 805.3 872.8 816.2C814.7 827 756.3 845 698.2 854C640 863 582 863 523.8 866.7C465.7 870.3 407.3 877.7 349.2 872.3C291 867 233 849 174.8 840C116.7 831 58.3 831 29.2 831L0 831Z" fill="#012640"></path><path d="M0 1081L29.2 1081C58.3 1081 116.7 1081 174.8 1081C233 1081 291 1081 349.2 1081C407.3 1081 465.7 1081 523.8 1081C582 1081 640 1081 698.2 1081C756.3 1081 814.7 1081 872.8 1081C931 1081 989 1081 1047.2 1081C1105.3 1081 1163.7 1081 1221.8 1081C1280 1081 1338 1081 1396.2 1081C1454.3 1081 1512.7 1081 1570.8 1081C1629 1081 1687 1081 1745.2 1081C1803.3 1081 1861.7 1081 1890.8 1081L1920 1081L1920 928L1890.8 942.3C1861.7 956.7 1803.3 985.3 1745.2 988.8C1687 992.3 1629 970.7 1570.8 967.2C1512.7 963.7 1454.3 978.3 1396.2 983.8C1338 989.3 1280 985.7 1221.8 980.2C1163.7 974.7 1105.3 967.3 1047.2 965.5C989 963.7 931 967.3 872.8 963.8C814.7 960.3 756.3 949.7 698.2 944.3C640 939 582 939 523.8 951.5C465.7 964 407.3 989 349.2 996.2C291 1003.3 233 992.7 174.8 992.7C116.7 992.7 58.3 1003.3 29.2 1008.7L0 1014Z" fill="#003a62"></path></svg>